<?xml version="1.0" encoding="UTF-8" standalone="no"?>
<!-- Created with Inkscape (http://www.inkscape.org/) -->

<svg
   version="1.1"
   id="svg1"
   width="316"
   height="453"
   viewBox="0 0 316 453"
   sodipodi:docname="symbol-logo.svg"
   xml:space="preserve"
   inkscape:version="1.3.2 (091e20e, 2023-11-25, custom)"
   xmlns:inkscape="http://www.inkscape.org/namespaces/inkscape"
   xmlns:sodipodi="http://sodipodi.sourceforge.net/DTD/sodipodi-0.dtd"
   xmlns="http://www.w3.org/2000/svg"
   xmlns:svg="http://www.w3.org/2000/svg"><defs
     id="defs1" /><sodipodi:namedview
     id="namedview1"
     pagecolor="#ffffff"
     bordercolor="#000000"
     borderopacity="0.25"
     inkscape:showpageshadow="2"
     inkscape:pageopacity="0.0"
     inkscape:pagecheckerboard="0"
     inkscape:deskcolor="#d1d1d1"
     inkscape:zoom="1.2119205"
     inkscape:cx="157.60109"
     inkscape:cy="226.5"
     inkscape:window-width="1366"
     inkscape:window-height="745"
     inkscape:window-x="-8"
     inkscape:window-y="-8"
     inkscape:window-maximized="1"
     inkscape:current-layer="g1" /><g
     inkscape:groupmode="layer"
     inkscape:label="Image"
     id="g1"><path
       style="fill:#000000"
       d="m 149.73463,352.16756 c -12.4415,-0.94872 -23.43765,-10.13394 -26.84291,-22.42222 -2.0681,-7.463 -1.33696,-15.06263 2.12972,-22.13661 2.36096,-4.81769 1.3188,-3.69335 28.35268,-30.58885 l 14.95435,-14.87782 6.25202,6.23782 6.25201,6.23781 -19.52845,19.36 c -18.38487,18.22628 -19.58639,19.48604 -20.51768,21.5123 -4.22302,9.18821 1.99378,19.1277 11.9637,19.1277 3.94393,0 7.39417,-1.57327 9.99073,-4.55566 2.47602,-2.84395 3.73356,-7.35523 3.03711,-10.89525 -0.66605,-3.38542 -1.96295,-5.4364 -6.11614,-9.67229 l -3.78949,-3.86495 6.17903,-6.17293 6.17902,-6.17293 3.29658,3.14701 c 6.17946,5.89908 9.43777,10.98663 11.11094,17.34873 1.00102,3.80627 1.14754,10.30393 0.31477,13.95827 -2.35776,10.34623 -8.93401,18.27002 -18.50825,22.30077 -4.35011,1.8314 -9.27182,2.54377 -14.70974,2.1291 z m -34.53314,-86.9057 C 103.23831,253.25215 93.45026,243.31473 93.45026,243.1787 c 0,-0.13603 2.73129,-2.97577 6.06952,-6.31054 l 6.06952,-6.06321 4.56554,4.46637 c 2.51104,2.45651 9.07489,9.00237 14.58633,14.54637 5.51144,5.544 13.32579,13.39326 17.36523,17.44279 l 7.34444,7.36279 -6.24907,6.23721 -6.24906,6.23721 z m -21.11123,14.77162 c -4.47999,-0.81196 -8.83725,-2.62774 -12.23033,-5.09671 -6.51481,-4.74047 -10.59759,-10.73187 -12.42885,-18.23908 -2.14245,-8.78292 -0.1941,-18.35389 5.2035,-25.56133 1.36256,-1.81943 30.61037,-31.55867 31.03717,-31.55867 0.0831,0 2.93181,2.74734 6.33056,6.10519 l 6.17954,6.10519 -2.0458,2.06254 c -27.31391,27.53751 -27.54781,27.78182 -28.49026,29.75852 -2.66242,5.58419 -1.5364,11.44171 3.01719,15.69532 2.10718,1.96836 4.516,3.072 7.58728,3.47621 1.30108,0.17124 5.15703,-0.38767 6.4203,-0.9306 0.36204,-0.1556 2.21792,1.50873 6.7153,6.02219 3.41824,3.43046 6.25322,6.3519 6.29995,6.49208 0.12309,0.36928 -3.25536,2.41261 -5.84757,3.53667 -5.65069,2.45032 -11.8707,3.19768 -17.74798,2.13248 z m 108.32,0.28852 c -2.65221,-0.33098 -6.03697,-1.23741 -8.48,-2.27091 -5.37714,-2.27477 -6.15588,-2.94141 -22.64328,-19.38374 l -15.44329,-15.40106 6.24149,-6.24149 6.2415,-6.24149 14.96179,14.92593 c 15.91946,15.88131 16.18503,16.10522 20.04816,16.90335 5.58931,1.15477 11.71172,-1.9261 14.29122,-7.19151 1.68366,-3.43677 1.90622,-6.53789 0.73125,-10.18921 l -0.49743,-1.54583 6.1943,-6.21262 c 3.40686,-3.41695 6.34683,-6.21333 6.53326,-6.21418 0.57379,-0.003 3.4125,5.10443 4.3488,7.82382 2.40072,6.97263 2.39401,14.04666 -0.02,21.05581 -2.15606,6.26021 -7.264,12.42596 -13.31047,16.06695 -5.25991,3.16735 -13.18462,4.86652 -19.19731,4.11618 z m -71.76201,-30.90624 -6.15586,-6.16194 21.91783,-21.91609 21.91784,-21.91608 6.24221,6.23605 6.2422,6.23605 -21.84023,21.84197 c -12.01212,12.01309 -21.91401,21.84197 -22.00418,21.84197 -0.0902,0 -2.93409,-2.77287 -6.31981,-6.16193 z m 62.72515,0.002 -6.15071,-6.16 14.71937,-14.88 c 15.97016,-16.14444 16.21342,-16.44077 17.00923,-20.72 1.02937,-5.5352 -2.15424,-11.32831 -7.6583,-13.93553 -2.01937,-0.95656 -2.38545,-1.02316 -5.52273,-1.00483 -2.32568,0.0136 -3.71622,0.17544 -4.51718,0.52578 l -1.15719,0.50615 -6.34799,-6.35394 c -3.49139,-3.49467 -6.28265,-6.4011 -6.20281,-6.45873 0.0798,-0.0576 0.68272,-0.50042 1.33973,-0.98398 0.65701,-0.48355 2.38501,-1.44959 3.84,-2.14675 7.98408,-3.82558 17.64038,-3.88291 25.98148,-0.15424 4.42046,1.97604 9.97199,6.58353 12.60594,10.46228 1.30514,1.92195 3.34701,6.05052 4.0079,8.10379 2.95531,9.1816 1.14435,20.04722 -4.65662,27.93953 -1.14,1.55099 -30.61185,31.42047 -31.00219,31.42047 -0.0755,0 -2.90504,-2.772 -6.28793,-6.16 z m -60.95743,-29.6 c -2.40063,-2.42 -9.01799,-9.02371 -14.70524,-14.67491 -9.33425,-9.27507 -10.55397,-10.37588 -12.53451,-11.31259 -6.72109,-3.17877 -14.66827,-0.28302 -17.83249,6.49771 -0.88609,1.89882 -1.02681,2.55871 -1.05777,4.96 -0.0252,1.95194 0.14008,3.27436 0.55959,4.4786 l 0.59528,1.70881 -6.19528,6.2028 c -3.40741,3.41154 -6.34639,6.20658 -6.53107,6.21119 -0.48876,0.0122 -2.75859,-3.9205 -3.90101,-6.7589 -1.59522,-3.96343 -2.15286,-6.95707 -2.13706,-11.47271 0.008,-2.2 0.20022,-4.864 0.42783,-5.92 2.53429,-11.75784 11.01754,-20.7504 22.57294,-23.92814 2.20937,-0.60758 3.34205,-0.70433 8.01308,-0.68448 4.9666,0.0211 5.68843,0.0988 8.29475,0.89234 3.24178,0.98706 6.35187,2.47093 9.24269,4.40986 1.19,0.79815 8.02917,7.35098 17.10795,16.39169 l 15.12538,15.06195 -6.1623,6.16839 c -3.38927,3.39262 -6.24234,6.16839 -6.34015,6.16839 -0.0978,0 -2.14198,-1.98 -4.54261,-4.4 z m 45.24442,-17.34665 -21.86988,-21.6678 6.10801,-6.05277 c 3.35941,-3.32903 6.23214,-6.05278 6.38385,-6.05278 0.41532,0 43.56789,42.7927 43.56789,43.20455 0,0.32645 -11.26457,11.64465 -12,12.05713 -0.176,0.0987 -10.16144,-9.57103 -22.18987,-21.48833 z m -46.71717,-15.40352 c -3.38468,-3.38076 -6.11323,-6.26536 -6.06346,-6.41023 0.0498,-0.14486 8.7654,-8.96051 19.36805,-19.59033 17.64504,-17.69025 19.35987,-19.50285 20.24964,-21.40424 1.83482,-3.92093 1.87817,-8.10718 0.12113,-11.69844 -4.57589,-9.35278 -17.64022,-10.11274 -23.14903,-1.34659 -1.53821,2.44776 -2.02926,4.48823 -1.88329,7.82569 0.19341,4.42223 1.1514,6.15836 6.11194,11.07647 l 3.88054,3.84735 -6.23377,6.23376 -6.23376,6.23376 -4.02201,-3.92851 c -5.82108,-5.68577 -8.31114,-9.51825 -10.03728,-15.44852 -1.59907,-5.49368 -1.73594,-10.22102 -0.45684,-15.77823 3.48188,-15.1275 17.82553,-25.37346 33.25518,-23.75487 4.04101,0.4239 6.28141,1.04462 9.81919,2.72049 3.81325,1.80635 6.50219,3.74597 9.35142,6.74546 4.89794,5.15627 7.50838,10.84274 8.39197,18.28075 0.5035,4.23847 0.0297,8.28966 -1.50868,12.89964 -1.27726,3.82749 -2.83336,6.62908 -5.55156,9.99495 -1.03571,1.2825 -10.29189,10.72806 -20.56927,20.99014 l -18.68616,18.65833 z"
       id="path2" /></g></svg>
